<svg width="78" height="78" viewBox="0 0 78 78" fill="none" xmlns="http://www.w3.org/2000/svg">
<path fill-rule="evenodd" clip-rule="evenodd" d="M24.2612 3.46449C28.0734 3.28899 29.2889 3.24999 38.9999 3.24999C48.7109 3.24999 49.9264 3.29224 53.7354 3.46449C57.5444 3.63674 60.1444 4.24449 62.4194 5.12524C64.8017 6.02549 66.9629 7.43274 68.7504 9.25274C70.5704 11.037 71.9744 13.195 72.8714 15.5805C73.7554 17.8555 74.3599 20.4555 74.5354 24.258C74.7109 28.0767 74.7499 29.2922 74.7499 39C74.7499 48.711 74.7077 49.9265 74.5354 53.7387C74.3632 57.5412 73.7554 60.1412 72.8714 62.4162C71.9744 64.802 70.5681 66.9636 68.7504 68.7505C66.9629 70.5705 64.8017 71.9745 62.4194 72.8715C60.1444 73.7555 57.5444 74.36 53.7419 74.5355C49.9264 74.711 48.7109 74.75 38.9999 74.75C29.2889 74.75 28.0734 74.7077 24.2612 74.5355C20.4587 74.3632 17.8587 73.7555 15.5837 72.8715C13.1979 71.9744 11.0364 70.5681 9.24944 68.7505C7.43067 66.9652 6.02321 64.8046 5.12519 62.4195C4.24444 60.1445 3.63994 57.5445 3.46444 53.742C3.28894 49.9232 3.24994 48.7077 3.24994 39C3.24994 29.289 3.29219 28.0735 3.46444 24.2645C3.63669 20.4555 4.24444 17.8555 5.12519 15.5805C6.02454 13.1953 7.43307 11.0348 9.25269 9.24949C11.0371 7.43112 13.1965 6.02368 15.5804 5.12524C17.8554 4.24449 20.4554 3.63999 24.2579 3.46449H24.2612ZM53.4462 9.89949C49.6762 9.72724 48.5452 9.69149 38.9999 9.69149C29.4547 9.69149 28.3237 9.72724 24.5537 9.89949C21.0664 10.0587 19.1749 10.6405 17.9139 11.1312C16.2467 11.7812 15.0539 12.5515 13.8027 13.8027C12.6166 14.9567 11.7038 16.3614 11.1312 17.914C10.6404 19.175 10.0587 21.0665 9.89944 24.5537C9.72719 28.3237 9.69144 29.4547 9.69144 39C9.69144 48.5452 9.72719 49.6762 9.89944 53.4462C10.0587 56.9335 10.6404 58.825 11.1312 60.086C11.7032 61.6362 12.6164 63.0435 13.8027 64.1972C14.9564 65.3835 16.3637 66.2967 17.9139 66.8687C19.1749 67.3595 21.0664 67.9412 24.5537 68.1005C28.3237 68.2727 29.4514 68.3085 38.9999 68.3085C48.5484 68.3085 49.6762 68.2727 53.4462 68.1005C56.9334 67.9412 58.8249 67.3595 60.0859 66.8687C61.7532 66.2187 62.9459 65.4485 64.1972 64.1972C65.3834 63.0435 66.2967 61.6362 66.8687 60.086C67.3594 58.825 67.9412 56.9335 68.1004 53.4462C68.2727 49.6762 68.3084 48.5452 68.3084 39C68.3084 29.4547 68.2727 28.3237 68.1004 24.5537C67.9412 21.0665 67.3594 19.175 66.8687 17.914C66.2187 16.2467 65.4484 15.054 64.1972 13.8027C63.0432 12.6167 61.6385 11.7039 60.0859 11.1312C58.8249 10.6405 56.9334 10.0587 53.4462 9.89949ZM34.4337 50.0207C36.9838 51.0823 39.8234 51.2256 42.4675 50.4261C45.1115 49.6266 47.396 47.934 48.9307 45.6373C50.4654 43.3406 51.1551 40.5823 50.8821 37.8336C50.6091 35.0848 49.3902 32.5161 47.4337 30.5662C46.1865 29.3198 44.6784 28.3654 43.018 27.7717C41.3577 27.1781 39.5863 26.9599 37.8316 27.133C36.0768 27.3061 34.3822 27.8661 32.8698 28.7727C31.3574 29.6793 30.0649 30.9099 29.0852 32.376C28.1055 33.8421 27.4631 35.5072 27.2041 37.2514C26.9452 38.9955 27.0762 40.7754 27.5877 42.4629C28.0992 44.1504 28.9785 45.7035 30.1623 47.0103C31.3461 48.3172 32.8049 49.3453 34.4337 50.0207ZM26.0064 26.0065C27.7128 24.3002 29.7385 22.9466 31.9679 22.0232C34.1973 21.0997 36.5868 20.6244 38.9999 20.6244C41.4131 20.6244 43.8025 21.0997 46.032 22.0232C48.2614 22.9466 50.2871 24.3002 51.9934 26.0065C53.6998 27.7128 55.0533 29.7385 55.9768 31.968C56.9002 34.1974 57.3755 36.5869 57.3755 39C57.3755 41.4131 56.9002 43.8026 55.9768 46.032C55.0533 48.2614 53.6998 50.2872 51.9934 51.9935C48.5473 55.4396 43.8734 57.3756 38.9999 57.3756C34.1264 57.3756 29.4525 55.4396 26.0064 51.9935C22.5603 48.5474 20.6244 43.8735 20.6244 39C20.6244 34.1265 22.5603 29.4526 26.0064 26.0065ZM61.4509 23.361C61.8738 22.9621 62.2123 22.4825 62.4464 21.9504C62.6806 21.4184 62.8056 20.8447 62.814 20.2635C62.8225 19.6823 62.7143 19.1053 62.4958 18.5666C62.2772 18.028 61.9528 17.5386 61.5418 17.1276C61.1308 16.7166 60.6415 16.3922 60.1028 16.1737C59.5642 15.9551 58.9871 15.8469 58.4059 15.8554C57.8247 15.8639 57.2511 15.9889 56.719 16.223C56.187 16.4571 55.7073 16.7956 55.3084 17.2185C54.5327 18.0408 54.108 19.1331 54.1245 20.2635C54.1409 21.3939 54.5973 22.4733 55.3967 23.2727C56.1961 24.0721 57.2755 24.5285 58.4059 24.545C59.5363 24.5614 60.6286 24.1367 61.4509 23.361Z" fill="#241400"/>
</svg>
