<svg width="38" height="38" viewBox="0 0 38 38" fill="none" xmlns="http://www.w3.org/2000/svg">
<path fill-rule="evenodd" clip-rule="evenodd" d="M35.7405 26.2448C35.7405 29.7282 30.9635 30.1309 27.3713 30.1309L27.1142 30.1306C24.8256 30.1251 19 29.9806 19 26.2237C19 22.8114 23.585 22.3554 27.1499 22.3382L27.6284 22.3379C29.9169 22.3434 35.7405 22.4879 35.7405 26.2448ZM27.3713 23.9229C22.8681 23.9229 20.5853 24.6965 20.5853 26.2237C20.5853 27.7646 22.8681 28.5456 27.3713 28.5456C31.8735 28.5456 34.1552 27.772 34.1552 26.2448C34.1552 24.7039 31.8735 23.9229 27.3713 23.9229ZM27.3713 9.13086C30.4657 9.13086 32.9821 11.6483 32.9821 14.7427C32.9821 17.8372 30.4657 20.3535 27.3713 20.3535H27.3375C24.2494 20.344 21.7478 17.8256 21.7583 14.7396C21.7583 11.6483 24.2758 9.13086 27.3713 9.13086ZM27.3713 10.64C25.1086 10.64 23.2675 12.48 23.2675 14.7427C23.2602 16.998 25.0874 18.837 27.3406 18.8454L27.3713 19.6V18.8454C29.633 18.8454 31.4729 17.0044 31.4729 14.7427C31.4729 12.48 29.633 10.64 27.3713 10.64Z" fill="black"/>
</svg>
