<svg width="68" height="67" viewBox="0 0 68 67" fill="none" xmlns="http://www.w3.org/2000/svg">
<path d="M62.272 20.1353C62.0008 17.5501 61.9626 13.0973 63.8559 11.6022C63.8897 11.5748 63.9149 11.5352 63.9446 11.5012C65.4925 10.8733 66.5637 9.99207 65.7228 8.8063L42.8889 0.0805664L5.91562 6.6C5.91562 6.6 1.68171 7.36749 2.05993 15.71C2.26526 20.2505 3.38812 22.4804 4.3701 23.5779L1.33611 24.7375C0.494007 25.9233 1.56504 26.8047 3.11316 27.4316C3.14258 27.4666 3.16739 27.506 3.20181 27.5334C5.09393 29.0298 5.05751 33.482 4.78535 36.0678C-2.01208 38.5157 0.427968 39.3134 0.427968 39.3134L1.91905 39.771C0.87023 40.973 -0.171386 43.2524 0.0237292 47.5754C0.402153 55.9164 3.87981 56.492 3.87981 56.492L28.0749 66.466L64.5946 55.2474C64.5946 55.2474 67.0354 54.4484 60.2362 52.0002C59.9628 49.4185 59.9248 44.9668 61.8213 43.4666C61.8561 43.44 61.8815 43.3996 61.9098 43.3661C63.4579 42.7382 64.5281 41.8578 63.687 40.672L62.0997 40.0641C63.1583 39.2545 64.7484 37.1385 64.9976 31.6422C65.1695 27.8616 64.3918 25.6474 63.4917 24.3438L66.6292 23.3809C66.6294 23.3824 69.0702 22.5835 62.272 20.1353ZM31.7255 20.0284L37.8667 18.4277L58.6206 13.0187L61.7126 12.2121C60.7247 14.5054 60.7661 17.644 60.9296 19.6612C60.9654 20.1175 61.0066 20.5343 61.0466 20.851L57.6623 21.9183L31.4673 30.1828L31.7255 20.0284ZM5.34528 28.1458L8.43691 28.9524L28.3681 34.1488L30.1093 34.601L35.331 35.9622L35.5886 46.1168L8.66584 37.6218L6.01167 36.7853C6.0507 36.468 6.09192 36.0518 6.12934 35.5942C6.29184 33.5785 6.33406 30.4392 5.34528 28.1458ZM4.14417 15.3085C4.10675 13.0895 4.41853 11.4847 5.0487 10.669C5.44974 10.1482 5.92302 10.0398 6.24761 10.0398C6.41911 10.0398 6.54259 10.07 6.55099 10.07L22.4818 16.6569L30.4299 19.9434L30.1692 30.1689L7.87157 22.2406L6.69488 21.8226C6.65165 21.8071 6.59302 21.7964 6.54779 21.7939C6.45594 21.7855 4.25143 21.5282 4.14417 15.3085ZM28.1326 62.0358L4.65887 53.6893C4.61545 53.6733 4.55741 53.6626 4.51219 53.6598C4.41873 53.652 2.21323 53.3949 2.10656 47.1767C2.06854 44.9549 2.38193 43.3516 3.0109 42.5352C3.41294 42.0144 3.88642 41.906 4.21041 41.906C4.38231 41.906 4.50538 41.9352 4.51439 41.9352C4.51439 41.9352 4.51539 41.9352 4.51439 41.9352L28.3917 51.8101L28.1326 62.0358ZM58.8918 51.5266C58.9288 51.9845 58.97 52.4005 59.01 52.7177L29.4301 62.0503L29.6887 51.8956L36.0126 50.2467L36.9466 50.5332L40.4471 49.0904L56.5828 44.8851L59.676 44.078C58.6871 46.3711 58.7281 49.5109 58.8918 51.5266ZM60.5211 37.7261C60.4673 37.7276 60.4135 37.7368 60.3628 37.7571L58.1319 38.5492L36.8898 46.1034L36.63 35.8779L43.5993 32.995L60.4747 26.0151C60.4769 26.0139 61.3624 25.7644 62.0124 26.6027C62.6416 27.4184 62.9538 29.0232 62.917 31.2422C62.8069 37.4599 60.6014 37.7182 60.5211 37.7261Z" fill="white"/>
</svg>
