<svg width="177" height="42" viewBox="0 0 177 42" fill="none" xmlns="http://www.w3.org/2000/svg">
<path d="M47.798 8.5927H51.102V15.8307H55.526V18.3927H47.798V8.5927ZM56.4386 8.5927H59.7426V18.3927H56.4386V8.5927ZM69.1732 13.2687C69.7518 13.4834 70.1998 13.796 70.5172 14.2067C70.8345 14.6174 70.9932 15.112 70.9932 15.6907C70.9932 16.5494 70.6385 17.2167 69.9292 17.6927C69.2198 18.1594 68.1932 18.3927 66.8492 18.3927H61.3332V8.5927H66.5692C67.8758 8.5927 68.8605 8.82603 69.5232 9.2927C70.1952 9.75937 70.5312 10.38 70.5312 11.1547C70.5312 11.612 70.4145 12.0227 70.1812 12.3867C69.9572 12.7507 69.6212 13.0447 69.1732 13.2687ZM64.5812 10.9027V12.3587H66.1212C66.8398 12.3587 67.1992 12.116 67.1992 11.6307C67.1992 11.1454 66.8398 10.9027 66.1212 10.9027H64.5812ZM66.5692 16.0827C67.2972 16.0827 67.6612 15.826 67.6612 15.3127C67.6612 14.7994 67.2972 14.5427 66.5692 14.5427H64.5812V16.0827H66.5692ZM76.3613 15.9287H75.4653V18.3927H72.1613V8.5927H76.8793C77.7846 8.5927 78.5733 8.74203 79.2453 9.0407C79.9173 9.33937 80.4353 9.7687 80.7993 10.3287C81.1633 10.8887 81.3453 11.542 81.3453 12.2887C81.3453 12.9887 81.1866 13.6 80.8693 14.1227C80.5519 14.6454 80.0946 15.0607 79.4973 15.3687L81.5553 18.3927H78.0273L76.3613 15.9287ZM78.0133 12.2887C78.0133 11.9247 77.9013 11.6447 77.6773 11.4487C77.4533 11.2434 77.1173 11.1407 76.6693 11.1407H75.4653V13.4367H76.6693C77.1173 13.4367 77.4533 13.3387 77.6773 13.1427C77.9013 12.9374 78.0133 12.6527 78.0133 12.2887ZM89.2709 16.6847H85.5469L84.8889 18.3927H81.5289L85.8129 8.5927H89.0609L93.3449 18.3927H89.9289L89.2709 16.6847ZM88.3609 14.3047L87.4089 11.8407L86.4569 14.3047H88.3609ZM98.0722 15.9287H97.1762V18.3927H93.8722V8.5927H98.5902C99.4956 8.5927 100.284 8.74203 100.956 9.0407C101.628 9.33937 102.146 9.7687 102.51 10.3287C102.874 10.8887 103.056 11.542 103.056 12.2887C103.056 12.9887 102.898 13.6 102.58 14.1227C102.263 14.6454 101.806 15.0607 101.208 15.3687L103.266 18.3927H99.7382L98.0722 15.9287ZM99.7242 12.2887C99.7242 11.9247 99.6122 11.6447 99.3882 11.4487C99.1642 11.2434 98.8282 11.1407 98.3802 11.1407H97.1762V13.4367H98.3802C98.8282 13.4367 99.1642 13.3387 99.3882 13.1427C99.6122 12.9374 99.7242 12.6527 99.7242 12.2887ZM109.991 14.8367V18.3927H106.687V14.7947L102.991 8.5927H106.477L108.479 11.9807L110.495 8.5927H113.687L109.991 14.8367Z" fill="#720418"/>
<path d="M54.81 25.5027C55.4513 25.5027 56.032 25.65 56.552 25.9447C57.072 26.2307 57.4793 26.638 57.774 27.1667C58.0687 27.6954 58.216 28.2977 58.216 28.9737C58.216 29.6497 58.0687 30.252 57.774 30.7807C57.4793 31.3094 57.072 31.721 56.552 32.0157C56.032 32.3104 55.4513 32.4577 54.81 32.4577C54.238 32.4577 53.7223 32.3364 53.263 32.0937C52.8123 31.851 52.4483 31.5 52.171 31.0407V32.3927H51.287V22.7467H52.21V26.8547C52.496 26.4127 52.86 26.079 53.302 25.8537C53.7527 25.6197 54.2553 25.5027 54.81 25.5027ZM54.745 31.6387C55.2217 31.6387 55.655 31.5304 56.045 31.3137C56.435 31.0884 56.7383 30.772 56.955 30.3647C57.1803 29.9574 57.293 29.4937 57.293 28.9737C57.293 28.4537 57.1803 27.99 56.955 27.5827C56.7383 27.1754 56.435 26.8634 56.045 26.6467C55.655 26.4214 55.2217 26.3087 54.745 26.3087C54.2597 26.3087 53.822 26.4214 53.432 26.6467C53.0507 26.8634 52.7473 27.1754 52.522 27.5827C52.3053 27.99 52.197 28.4537 52.197 28.9737C52.197 29.4937 52.3053 29.9574 52.522 30.3647C52.7473 30.772 53.0507 31.0884 53.432 31.3137C53.822 31.5304 54.2597 31.6387 54.745 31.6387ZM62.8925 32.4577C62.2339 32.4577 61.6402 32.3104 61.1115 32.0157C60.5829 31.7124 60.1669 31.2964 59.8635 30.7677C59.5602 30.239 59.4085 29.641 59.4085 28.9737C59.4085 28.3064 59.5602 27.7084 59.8635 27.1797C60.1669 26.651 60.5829 26.2394 61.1115 25.9447C61.6402 25.65 62.2339 25.5027 62.8925 25.5027C63.5512 25.5027 64.1449 25.65 64.6735 25.9447C65.2022 26.2394 65.6139 26.651 65.9085 27.1797C66.2119 27.7084 66.3635 28.3064 66.3635 28.9737C66.3635 29.641 66.2119 30.239 65.9085 30.7677C65.6139 31.2964 65.2022 31.7124 64.6735 32.0157C64.1449 32.3104 63.5512 32.4577 62.8925 32.4577ZM62.8925 31.6387C63.3779 31.6387 63.8112 31.5304 64.1925 31.3137C64.5825 31.0884 64.8859 30.772 65.1025 30.3647C65.3192 29.9574 65.4275 29.4937 65.4275 28.9737C65.4275 28.4537 65.3192 27.99 65.1025 27.5827C64.8859 27.1754 64.5825 26.8634 64.1925 26.6467C63.8112 26.4214 63.3779 26.3087 62.8925 26.3087C62.4072 26.3087 61.9695 26.4214 61.5795 26.6467C61.1982 26.8634 60.8949 27.1754 60.6695 27.5827C60.4529 27.99 60.3445 28.4537 60.3445 28.9737C60.3445 29.4937 60.4529 29.9574 60.6695 30.3647C60.8949 30.772 61.1982 31.0884 61.5795 31.3137C61.9695 31.5304 62.4072 31.6387 62.8925 31.6387ZM71.0429 32.4577C70.3843 32.4577 69.7906 32.3104 69.2619 32.0157C68.7333 31.7124 68.3173 31.2964 68.0139 30.7677C67.7106 30.239 67.5589 29.641 67.5589 28.9737C67.5589 28.3064 67.7106 27.7084 68.0139 27.1797C68.3173 26.651 68.7333 26.2394 69.2619 25.9447C69.7906 25.65 70.3843 25.5027 71.0429 25.5027C71.7016 25.5027 72.2953 25.65 72.8239 25.9447C73.3526 26.2394 73.7643 26.651 74.0589 27.1797C74.3623 27.7084 74.5139 28.3064 74.5139 28.9737C74.5139 29.641 74.3623 30.239 74.0589 30.7677C73.7643 31.2964 73.3526 31.7124 72.8239 32.0157C72.2953 32.3104 71.7016 32.4577 71.0429 32.4577ZM71.0429 31.6387C71.5283 31.6387 71.9616 31.5304 72.3429 31.3137C72.7329 31.0884 73.0363 30.772 73.2529 30.3647C73.4696 29.9574 73.5779 29.4937 73.5779 28.9737C73.5779 28.4537 73.4696 27.99 73.2529 27.5827C73.0363 27.1754 72.7329 26.8634 72.3429 26.6467C71.9616 26.4214 71.5283 26.3087 71.0429 26.3087C70.5576 26.3087 70.1199 26.4214 69.7299 26.6467C69.3486 26.8634 69.0453 27.1754 68.8199 27.5827C68.6033 27.99 68.4949 28.4537 68.4949 28.9737C68.4949 29.4937 68.6033 29.9574 68.8199 30.3647C69.0453 30.772 69.3486 31.0884 69.7299 31.3137C70.1199 31.5304 70.5576 31.6387 71.0429 31.6387ZM78.9333 28.9607L77.3213 30.4427V32.3927H76.3983V22.7467H77.3213V29.2857L81.4033 25.5547H82.5473L79.6223 28.3497L82.8203 32.3927H81.6893L78.9333 28.9607ZM89.4413 32.4577C88.8866 32.4577 88.3536 32.3797 87.8423 32.2237C87.3396 32.059 86.9453 31.8554 86.6593 31.6127L87.0753 30.8847C87.3613 31.11 87.721 31.2964 88.1543 31.4437C88.5876 31.5824 89.0383 31.6517 89.5063 31.6517C90.1303 31.6517 90.5896 31.5564 90.8843 31.3657C91.1876 31.1664 91.3393 30.889 91.3393 30.5337C91.3393 30.2824 91.257 30.0874 91.0923 29.9487C90.9276 29.8014 90.7196 29.693 90.4683 29.6237C90.217 29.5457 89.8833 29.472 89.4673 29.4027C88.9126 29.2987 88.4663 29.1947 88.1283 29.0907C87.7903 28.978 87.5 28.7917 87.2573 28.5317C87.0233 28.2717 86.9063 27.912 86.9063 27.4527C86.9063 26.8807 87.1446 26.4127 87.6213 26.0487C88.098 25.6847 88.761 25.5027 89.6103 25.5027C90.0523 25.5027 90.4943 25.5634 90.9363 25.6847C91.3783 25.7974 91.7423 25.949 92.0283 26.1397L91.6253 26.8807C91.062 26.4907 90.3903 26.2957 89.6103 26.2957C89.021 26.2957 88.5746 26.3997 88.2713 26.6077C87.9766 26.8157 87.8293 27.0887 87.8293 27.4267C87.8293 27.6867 87.9116 27.8947 88.0763 28.0507C88.2496 28.2067 88.462 28.3237 88.7133 28.4017C88.9646 28.471 89.3113 28.5447 89.7533 28.6227C90.2993 28.7267 90.737 28.8307 91.0663 28.9347C91.3956 29.0387 91.6773 29.2164 91.9113 29.4677C92.1453 29.719 92.2623 30.0657 92.2623 30.5077C92.2623 31.1057 92.011 31.5824 91.5083 31.9377C91.0143 32.2844 90.3253 32.4577 89.4413 32.4577ZM97.5696 31.9767C97.3963 32.1327 97.1796 32.254 96.9196 32.3407C96.6683 32.4187 96.404 32.4577 96.1266 32.4577C95.4853 32.4577 94.9913 32.2844 94.6446 31.9377C94.298 31.591 94.1246 31.1014 94.1246 30.4687V26.3347H92.9026V25.5547H94.1246V24.0597H95.0476V25.5547H97.1276V26.3347H95.0476V30.4167C95.0476 30.824 95.1473 31.136 95.3466 31.3527C95.5546 31.5607 95.8493 31.6647 96.2306 31.6647C96.4213 31.6647 96.6033 31.6344 96.7766 31.5737C96.9586 31.513 97.1146 31.4264 97.2446 31.3137L97.5696 31.9767ZM101.804 32.4577C101.145 32.4577 100.551 32.3104 100.023 32.0157C99.494 31.7124 99.078 31.2964 98.7747 30.7677C98.4713 30.239 98.3197 29.641 98.3197 28.9737C98.3197 28.3064 98.4713 27.7084 98.7747 27.1797C99.078 26.651 99.494 26.2394 100.023 25.9447C100.551 25.65 101.145 25.5027 101.804 25.5027C102.462 25.5027 103.056 25.65 103.585 25.9447C104.113 26.2394 104.525 26.651 104.82 27.1797C105.123 27.7084 105.275 28.3064 105.275 28.9737C105.275 29.641 105.123 30.239 104.82 30.7677C104.525 31.2964 104.113 31.7124 103.585 32.0157C103.056 32.3104 102.462 32.4577 101.804 32.4577ZM101.804 31.6387C102.289 31.6387 102.722 31.5304 103.104 31.3137C103.494 31.0884 103.797 30.772 104.014 30.3647C104.23 29.9574 104.339 29.4937 104.339 28.9737C104.339 28.4537 104.23 27.99 104.014 27.5827C103.797 27.1754 103.494 26.8634 103.104 26.6467C102.722 26.4214 102.289 26.3087 101.804 26.3087C101.318 26.3087 100.881 26.4214 100.491 26.6467C100.109 26.8634 99.806 27.1754 99.5807 27.5827C99.364 27.99 99.2557 28.4537 99.2557 28.9737C99.2557 29.4937 99.364 29.9574 99.5807 30.3647C99.806 30.772 100.109 31.0884 100.491 31.3137C100.881 31.5304 101.318 31.6387 101.804 31.6387ZM108.043 26.8937C108.26 26.4344 108.58 26.0877 109.005 25.8537C109.438 25.6197 109.971 25.5027 110.604 25.5027V26.3997L110.383 26.3867C109.664 26.3867 109.1 26.6077 108.693 27.0497C108.286 27.4917 108.082 28.1114 108.082 28.9087V32.3927H107.159V25.5547H108.043V26.8937ZM118.166 29.2597H112.446C112.498 29.9704 112.771 30.5467 113.265 30.9887C113.759 31.422 114.383 31.6387 115.137 31.6387C115.561 31.6387 115.951 31.565 116.307 31.4177C116.662 31.2617 116.97 31.0364 117.23 30.7417L117.75 31.3397C117.446 31.7037 117.065 31.981 116.606 32.1717C116.155 32.3624 115.657 32.4577 115.111 32.4577C114.409 32.4577 113.785 32.3104 113.239 32.0157C112.701 31.7124 112.281 31.2964 111.978 30.7677C111.674 30.239 111.523 29.641 111.523 28.9737C111.523 28.3064 111.666 27.7084 111.952 27.1797C112.246 26.651 112.645 26.2394 113.148 25.9447C113.659 25.65 114.231 25.5027 114.864 25.5027C115.496 25.5027 116.064 25.65 116.567 25.9447C117.069 26.2394 117.464 26.651 117.75 27.1797C118.036 27.6997 118.179 28.2977 118.179 28.9737L118.166 29.2597ZM114.864 26.2957C114.205 26.2957 113.65 26.508 113.2 26.9327C112.758 27.3487 112.506 27.8947 112.446 28.5707H117.295C117.234 27.8947 116.978 27.3487 116.528 26.9327C116.086 26.508 115.531 26.2957 114.864 26.2957Z" fill="#241400"/>
<line x1="48" y1="20.8927" x2="175" y2="20.8927" stroke="black" stroke-opacity="0.59"/>
<g clip-path="url(#clip0_203_809)">
<path d="M39.0037 14.9043C38.8339 13.6275 38.81 11.4285 39.9958 10.6901C40.017 10.6766 40.0328 10.657 40.0514 10.6402C41.0209 10.3301 41.6919 9.89492 41.1652 9.30931L26.8633 5L3.70522 8.2197C3.70522 8.2197 1.05333 8.59874 1.29023 12.7188C1.41883 14.9612 2.12213 16.0624 2.73719 16.6044L0.836863 17.1771C0.309419 17.7627 0.980256 18.1981 1.94991 18.5076C1.96834 18.5249 1.98388 18.5444 2.00544 18.5579C3.19056 19.2969 3.16775 21.4957 2.99728 22.7727C-1.26025 23.9817 0.268056 24.3756 0.268056 24.3756L1.20199 24.6016C0.545064 25.1952 -0.107347 26.3209 0.0148627 28.4559C0.251887 32.5752 2.4301 32.8595 2.4301 32.8595L17.5846 37.7852L40.4585 32.2448C40.4585 32.2448 41.9873 31.8502 37.7286 30.6412C37.5574 29.3662 37.5336 27.1676 38.7215 26.4267C38.7433 26.4136 38.7592 26.3936 38.7769 26.3771C39.7465 26.067 40.4169 25.6322 39.89 25.0466L38.8958 24.7464C39.5589 24.3465 40.5549 23.3015 40.7109 20.5871C40.8186 18.72 40.3315 17.6265 39.7677 16.9827L41.7328 16.5072C41.733 16.5079 43.2618 16.1133 39.0037 14.9043ZM19.8711 14.8515L23.7176 14.061L36.7167 11.3896L38.6534 10.9913C38.0346 12.1239 38.0605 13.6739 38.1629 14.6701C38.1854 14.8955 38.2112 15.1013 38.2363 15.2577L36.1165 15.7848L19.7094 19.8664L19.8711 14.8515ZM3.34799 18.8604L5.28442 19.2587L17.7682 21.825L18.8588 22.0484L22.1294 22.7206L22.2907 27.7356L5.42781 23.5402L3.76538 23.1271C3.78982 22.9704 3.81565 22.7648 3.83908 22.5388C3.94086 21.5433 3.96731 19.993 3.34799 18.8604ZM2.59568 12.5205C2.57224 11.4246 2.76753 10.6321 3.16223 10.2292C3.41342 9.972 3.70986 9.91848 3.91316 9.91848C4.02058 9.91848 4.09792 9.9334 4.10318 9.9334L14.0814 13.1864L19.0596 14.8095L18.8963 19.8595L4.93032 15.944L4.1933 15.7376C4.16623 15.7299 4.1295 15.7246 4.10118 15.7234C4.04364 15.7193 2.66286 15.5922 2.59568 12.5205ZM17.6207 35.5974L2.91806 31.4753C2.89086 31.4674 2.85451 31.4622 2.82619 31.4608C2.76765 31.4569 1.38624 31.3299 1.31943 28.259C1.29562 27.1617 1.49191 26.3699 1.88586 25.9667C2.13768 25.7095 2.43424 25.656 2.63717 25.656C2.74484 25.656 2.82192 25.6704 2.82756 25.6704C2.82756 25.6704 2.82819 25.6704 2.82756 25.6704L17.783 30.5473L17.6207 35.5974ZM36.8866 30.4073C36.9098 30.6334 36.9356 30.8388 36.9607 30.9955L18.4334 35.6045L18.5954 30.5895L22.5563 29.7752L23.1413 29.9167L25.3338 29.2041L35.4404 27.1273L37.3778 26.7287C36.7584 27.8612 36.784 29.4118 36.8866 30.4073ZM37.9071 23.5917C37.8734 23.5925 37.8397 23.597 37.808 23.607L36.4106 23.9982L23.1057 27.7289L22.943 22.679L27.3082 21.2552L37.878 17.8081C37.8794 17.8075 38.4341 17.6843 38.8412 18.0983C39.2353 18.5011 39.4308 19.2937 39.4077 20.3896C39.3388 23.4602 37.9574 23.5878 37.9071 23.5917Z" fill="#720418"/>
</g>
<defs>
<clipPath id="clip0_203_809">
<rect width="42" height="42" fill="white"/>
</clipPath>
</defs>
</svg>
