<svg width="68" height="86" viewBox="0 0 68 86" fill="none" xmlns="http://www.w3.org/2000/svg">
<g clip-path="url(#clip0_215_59)">
<path d="M62.272 31.1353C62.0008 28.5501 61.9626 24.0973 63.8559 22.6022C63.8897 22.5748 63.9149 22.5352 63.9446 22.5012C65.4925 21.8733 66.5637 20.9921 65.7228 19.8063L42.8889 11.0806L5.91562 17.6C5.91562 17.6 1.68171 18.3675 2.05993 26.71C2.26526 31.2505 3.38812 33.4804 4.3701 34.5779L1.33611 35.7375C0.494007 36.9233 1.56504 37.8047 3.11316 38.4316C3.14258 38.4666 3.16739 38.506 3.20181 38.5334C5.09393 40.0298 5.05751 44.482 4.78535 47.0678C-2.01208 49.5157 0.427968 50.3134 0.427968 50.3134L1.91905 50.771C0.87023 51.973 -0.171386 54.2524 0.0237292 58.5754C0.402153 66.9164 3.87981 67.492 3.87981 67.492L28.0749 77.466L64.5946 66.2474C64.5946 66.2474 67.0354 65.4484 60.2362 63.0002C59.9628 60.4185 59.9248 55.9668 61.8213 54.4666C61.8561 54.44 61.8815 54.3996 61.9098 54.3661C63.4579 53.7382 64.5281 52.8578 63.687 51.672L62.0997 51.0641C63.1583 50.2545 64.7484 48.1385 64.9976 42.6422C65.1695 38.8616 64.3918 36.6474 63.4917 35.3438L66.6292 34.3809C66.6294 34.3824 69.0702 33.5835 62.272 31.1353ZM31.7255 31.0284L37.8667 29.4277L58.6206 24.0187L61.7126 23.2121C60.7247 25.5054 60.7661 28.644 60.9296 30.6612C60.9654 31.1175 61.0066 31.5343 61.0466 31.851L57.6623 32.9183L31.4673 41.1828L31.7255 31.0284ZM5.34528 39.1458L8.43691 39.9524L28.3681 45.1488L30.1093 45.601L35.331 46.9622L35.5886 57.1168L8.66584 48.6218L6.01167 47.7853C6.0507 47.468 6.09192 47.0518 6.12934 46.5942C6.29184 44.5785 6.33406 41.4392 5.34528 39.1458ZM4.14417 26.3085C4.10675 24.0895 4.41853 22.4847 5.0487 21.669C5.44974 21.1482 5.92302 21.0398 6.24761 21.0398C6.41911 21.0398 6.54259 21.07 6.55099 21.07L22.4818 27.6569L30.4299 30.9434L30.1692 41.1689L7.87157 33.2406L6.69488 32.8226C6.65165 32.8071 6.59302 32.7964 6.54779 32.7939C6.45594 32.7855 4.25143 32.5282 4.14417 26.3085ZM28.1326 73.0358L4.65887 64.6893C4.61545 64.6733 4.55741 64.6626 4.51219 64.6598C4.41873 64.652 2.21323 64.3949 2.10656 58.1767C2.06854 55.9549 2.38193 54.3516 3.0109 53.5352C3.41294 53.0144 3.88642 52.906 4.21041 52.906C4.38231 52.906 4.50538 52.9352 4.51439 52.9352C4.51439 52.9352 4.51539 52.9352 4.51439 52.9352L28.3917 62.8101L28.1326 73.0358ZM58.8918 62.5266C58.9288 62.9845 58.97 63.4005 59.01 63.7177L29.4301 73.0503L29.6887 62.8956L36.0126 61.2467L36.9466 61.5332L40.4471 60.0904L56.5828 55.8851L59.676 55.078C58.6871 57.3711 58.7281 60.5109 58.8918 62.5266ZM60.5211 48.7261C60.4673 48.7276 60.4135 48.7368 60.3628 48.7571L58.1319 49.5492L36.8898 57.1034L36.63 46.8779L43.5993 43.995L60.4747 37.0151C60.4769 37.0139 61.3624 36.7644 62.0124 37.6027C62.6416 38.4184 62.9538 40.0232 62.917 42.2422C62.8069 48.4599 60.6014 48.7182 60.5211 48.7261Z" fill="white"/>
</g>
<defs>
<clipPath id="clip0_215_59">
<rect width="67.0557" height="85.0439" fill="white" transform="translate(0 0.956055)"/>
</clipPath>
</defs>
</svg>
