<svg width="152" height="54" viewBox="0 0 152 54" fill="none" xmlns="http://www.w3.org/2000/svg">
<path d="M40.9519 11.991H44.2559V19.229H48.6799V21.791H40.9519V11.991ZM49.5926 11.991H52.8966V21.791H49.5926V11.991ZM62.3271 16.667C62.9058 16.8817 63.3538 17.1943 63.6711 17.605C63.9884 18.0157 64.1471 18.5103 64.1471 19.089C64.1471 19.9477 63.7924 20.615 63.0831 21.091C62.3738 21.5577 61.3471 21.791 60.0031 21.791H54.4871V11.991H59.7231C61.0298 11.991 62.0144 12.2243 62.6771 12.691C63.3491 13.1577 63.6851 13.7783 63.6851 14.553C63.6851 15.0103 63.5684 15.421 63.3351 15.785C63.1111 16.149 62.7751 16.443 62.3271 16.667ZM57.7351 14.301V15.757H59.2751C59.9938 15.757 60.3531 15.5143 60.3531 15.029C60.3531 14.5437 59.9938 14.301 59.2751 14.301H57.7351ZM59.7231 19.481C60.4511 19.481 60.8151 19.2243 60.8151 18.711C60.8151 18.1977 60.4511 17.941 59.7231 17.941H57.7351V19.481H59.7231ZM69.5152 19.327H68.6192V21.791H65.3152V11.991H70.0332C70.9385 11.991 71.7272 12.1403 72.3992 12.439C73.0712 12.7377 73.5892 13.167 73.9532 13.727C74.3172 14.287 74.4992 14.9403 74.4992 15.687C74.4992 16.387 74.3405 16.9983 74.0232 17.521C73.7059 18.0437 73.2485 18.459 72.6512 18.767L74.7092 21.791H71.1812L69.5152 19.327ZM71.1672 15.687C71.1672 15.323 71.0552 15.043 70.8312 14.847C70.6072 14.6417 70.2712 14.539 69.8232 14.539H68.6192V16.835H69.8232C70.2712 16.835 70.6072 16.737 70.8312 16.541C71.0552 16.3357 71.1672 16.051 71.1672 15.687ZM82.4249 20.083H78.7009L78.0429 21.791H74.6829L78.9669 11.991H82.2149L86.4989 21.791H83.0829L82.4249 20.083ZM81.5149 17.703L80.5629 15.239L79.6109 17.703H81.5149ZM91.2261 19.327H90.3301V21.791H87.0261V11.991H91.7441C92.6495 11.991 93.4381 12.1403 94.1101 12.439C94.7821 12.7377 95.3001 13.167 95.6641 13.727C96.0282 14.287 96.2102 14.9403 96.2102 15.687C96.2102 16.387 96.0515 16.9983 95.7341 17.521C95.4168 18.0437 94.9595 18.459 94.3621 18.767L96.4202 21.791H92.8921L91.2261 19.327ZM92.8781 15.687C92.8781 15.323 92.7661 15.043 92.5421 14.847C92.3181 14.6417 91.9821 14.539 91.5341 14.539H90.3301V16.835H91.5341C91.9821 16.835 92.3181 16.737 92.5421 16.541C92.7661 16.3357 92.8781 16.051 92.8781 15.687ZM103.145 18.235V21.791H99.8411V18.193L96.1451 11.991H99.6311L101.633 15.379L103.649 11.991H106.841L103.145 18.235Z" fill="white"/>
<path d="M49.9058 37.6452H44.8358L43.7438 40.0762H42.7428L46.9028 30.9762H47.8518L52.0118 40.0762H50.9978L49.9058 37.6452ZM49.5548 36.8652L47.3708 31.9772L45.1868 36.8652H49.5548ZM59.4987 30.4302V40.0762H58.6147V38.7242C58.3373 39.1835 57.969 39.5345 57.5097 39.7772C57.059 40.0198 56.5477 40.1412 55.9757 40.1412C55.3343 40.1412 54.7537 39.9938 54.2337 39.6992C53.7137 39.4045 53.3063 38.9928 53.0117 38.4642C52.717 37.9355 52.5697 37.3332 52.5697 36.6572C52.5697 35.9812 52.717 35.3788 53.0117 34.8502C53.3063 34.3215 53.7137 33.9142 54.2337 33.6282C54.7537 33.3335 55.3343 33.1862 55.9757 33.1862C56.5303 33.1862 57.0287 33.3032 57.4707 33.5372C57.9213 33.7625 58.2897 34.0962 58.5757 34.5382V30.4302H59.4987ZM56.0537 39.3222C56.5303 39.3222 56.9593 39.2138 57.3407 38.9972C57.7307 38.7718 58.034 38.4555 58.2507 38.0482C58.476 37.6408 58.5887 37.1772 58.5887 36.6572C58.5887 36.1372 58.476 35.6735 58.2507 35.2662C58.034 34.8588 57.7307 34.5468 57.3407 34.3302C56.9593 34.1048 56.5303 33.9922 56.0537 33.9922C55.5683 33.9922 55.1307 34.1048 54.7407 34.3302C54.3593 34.5468 54.056 34.8588 53.8307 35.2662C53.614 35.6735 53.5057 36.1372 53.5057 36.6572C53.5057 37.1772 53.614 37.6408 53.8307 38.0482C54.056 38.4555 54.3593 38.7718 54.7407 38.9972C55.1307 39.2138 55.5683 39.3222 56.0537 39.3222ZM70.5972 33.1862C71.4552 33.1862 72.1269 33.4332 72.6122 33.9272C73.1062 34.4212 73.3532 35.1492 73.3532 36.1112V40.0762H72.4302V36.2022C72.4302 35.4915 72.2569 34.9498 71.9102 34.5772C71.5722 34.2045 71.0912 34.0182 70.4672 34.0182C69.7566 34.0182 69.1976 34.2392 68.7902 34.6812C68.3829 35.1145 68.1792 35.7168 68.1792 36.4882V40.0762H67.2562V36.2022C67.2562 35.4915 67.0829 34.9498 66.7362 34.5772C66.3982 34.2045 65.9129 34.0182 65.2802 34.0182C64.5782 34.0182 64.0192 34.2392 63.6032 34.6812C63.1959 35.1145 62.9922 35.7168 62.9922 36.4882V40.0762H62.0692V33.2382H62.9532V34.4862C63.1959 34.0702 63.5339 33.7495 63.9672 33.5242C64.4006 33.2988 64.8989 33.1862 65.4622 33.1862C66.0342 33.1862 66.5282 33.3075 66.9442 33.5502C67.3689 33.7928 67.6852 34.1525 67.8932 34.6292C68.1446 34.1785 68.5042 33.8275 68.9722 33.5762C69.4489 33.3162 69.9906 33.1862 70.5972 33.1862ZM75.8563 33.2382H76.7793V40.0762H75.8563V33.2382ZM76.3243 31.7432C76.1337 31.7432 75.9733 31.6782 75.8433 31.5482C75.7133 31.4182 75.6483 31.2622 75.6483 31.0802C75.6483 30.9068 75.7133 30.7552 75.8433 30.6252C75.9733 30.4952 76.1337 30.4302 76.3243 30.4302C76.515 30.4302 76.6753 30.4952 76.8053 30.6252C76.9353 30.7465 77.0003 30.8938 77.0003 31.0672C77.0003 31.2578 76.9353 31.4182 76.8053 31.5482C76.6753 31.6782 76.515 31.7432 76.3243 31.7432ZM82.8315 33.1862C83.6895 33.1862 84.3699 33.4375 84.8725 33.9402C85.3839 34.4342 85.6395 35.1578 85.6395 36.1112V40.0762H84.7165V36.2022C84.7165 35.4915 84.5389 34.9498 84.1835 34.5772C83.8282 34.2045 83.3212 34.0182 82.6625 34.0182C81.9259 34.0182 81.3409 34.2392 80.9075 34.6812C80.4829 35.1145 80.2705 35.7168 80.2705 36.4882V40.0762H79.3475V33.2382H80.2315V34.4992C80.4829 34.0832 80.8295 33.7625 81.2715 33.5372C81.7222 33.3032 82.2422 33.1862 82.8315 33.1862ZM95.1487 30.9762C96.3101 30.9762 97.2201 31.2535 97.8787 31.8082C98.5374 32.3628 98.8667 33.1255 98.8667 34.0962C98.8667 35.0668 98.5374 35.8295 97.8787 36.3842C97.2201 36.9302 96.3101 37.2032 95.1487 37.2032H92.7047V40.0762H91.7427V30.9762H95.1487ZM95.1227 36.3582C96.0241 36.3582 96.7131 36.1632 97.1897 35.7732C97.6664 35.3745 97.9047 34.8155 97.9047 34.0962C97.9047 33.3595 97.6664 32.7962 97.1897 32.4062C96.7131 32.0075 96.0241 31.8082 95.1227 31.8082H92.7047V36.3582H95.1227ZM103.08 33.1862C103.973 33.1862 104.658 33.4115 105.134 33.8622C105.611 34.3042 105.849 34.9628 105.849 35.8382V40.0762H104.965V39.0102C104.757 39.3655 104.45 39.6428 104.042 39.8422C103.644 40.0415 103.167 40.1412 102.612 40.1412C101.85 40.1412 101.243 39.9592 100.792 39.5952C100.342 39.2312 100.116 38.7502 100.116 38.1522C100.116 37.5715 100.324 37.1035 100.74 36.7482C101.165 36.3928 101.837 36.2152 102.755 36.2152H104.926V35.7992C104.926 35.2098 104.762 34.7635 104.432 34.4602C104.103 34.1482 103.622 33.9922 102.989 33.9922C102.556 33.9922 102.14 34.0658 101.741 34.2132C101.343 34.3518 101 34.5468 100.714 34.7982L100.298 34.1092C100.645 33.8145 101.061 33.5892 101.546 33.4332C102.032 33.2685 102.543 33.1862 103.08 33.1862ZM102.755 39.4132C103.275 39.4132 103.722 39.2962 104.094 39.0622C104.467 38.8195 104.744 38.4728 104.926 38.0222V36.9042H102.781C101.611 36.9042 101.026 37.3115 101.026 38.1262C101.026 38.5248 101.178 38.8412 101.481 39.0752C101.785 39.3005 102.209 39.4132 102.755 39.4132ZM111.84 33.1862C112.698 33.1862 113.379 33.4375 113.881 33.9402C114.393 34.4342 114.648 35.1578 114.648 36.1112V40.0762H113.725V36.2022C113.725 35.4915 113.548 34.9498 113.192 34.5772C112.837 34.2045 112.33 34.0182 111.671 34.0182C110.935 34.0182 110.35 34.2392 109.916 34.6812C109.492 35.1145 109.279 35.7168 109.279 36.4882V40.0762H108.356V33.2382H109.24V34.4992C109.492 34.0832 109.838 33.7625 110.28 33.5372C110.731 33.3032 111.251 33.1862 111.84 33.1862ZM123.134 36.9432H117.414C117.466 37.6538 117.739 38.2302 118.233 38.6722C118.727 39.1055 119.351 39.3222 120.105 39.3222C120.529 39.3222 120.919 39.2485 121.275 39.1012C121.63 38.9452 121.938 38.7198 122.198 38.4252L122.718 39.0232C122.414 39.3872 122.033 39.6645 121.574 39.8552C121.123 40.0458 120.625 40.1412 120.079 40.1412C119.377 40.1412 118.753 39.9938 118.207 39.6992C117.669 39.3958 117.249 38.9798 116.946 38.4512C116.642 37.9225 116.491 37.3245 116.491 36.6572C116.491 35.9898 116.634 35.3918 116.92 34.8632C117.214 34.3345 117.613 33.9228 118.116 33.6282C118.627 33.3335 119.199 33.1862 119.832 33.1862C120.464 33.1862 121.032 33.3335 121.535 33.6282C122.037 33.9228 122.432 34.3345 122.718 34.8632C123.004 35.3832 123.147 35.9812 123.147 36.6572L123.134 36.9432ZM119.832 33.9792C119.173 33.9792 118.618 34.1915 118.168 34.6162C117.726 35.0322 117.474 35.5782 117.414 36.2542H122.263C122.202 35.5782 121.946 35.0322 121.496 34.6162C121.054 34.1915 120.499 33.9792 119.832 33.9792ZM125.025 30.4302H125.948V40.0762H125.025V30.4302Z" fill="white"/>
<line x1="41.0083" y1="27.0049" x2="149.509" y2="27.0049" stroke="white" stroke-opacity="0.59"/>
<g clip-path="url(#clip0_299_3781)">
<path d="M33.3222 19.1628C33.1771 17.5212 33.1566 14.6939 34.1697 13.7445C34.1878 13.7271 34.2013 13.702 34.2172 13.6804C35.0455 13.2817 35.6187 12.7222 35.1687 11.9693L22.9501 6.42871L3.16549 10.5683C3.16549 10.5683 0.899895 11.0557 1.10229 16.3529C1.21215 19.2359 1.81301 20.6519 2.33847 21.3487L0.71496 22.085C0.264347 22.8379 0.837465 23.3976 1.66587 23.7957C1.68161 23.8179 1.69489 23.8429 1.71331 23.8603C2.7258 24.8105 2.70631 27.6375 2.56067 29.2793C-1.07668 30.8337 0.229009 31.3402 0.229009 31.3402L1.0269 31.6308C0.465666 32.394 -0.09171 33.8414 0.0126976 36.5863C0.215195 41.8826 2.07611 42.2481 2.07611 42.2481L15.0231 48.5812L34.565 41.4577C34.565 41.4577 35.8711 40.9504 32.2328 39.3959C32.0865 37.7566 32.0662 34.93 33.081 33.9774C33.0996 33.9604 33.1132 33.9348 33.1283 33.9135C33.9567 33.5148 34.5294 32.9558 34.0794 32.2029L33.23 31.8169C33.7964 31.3028 34.6473 29.9593 34.7807 26.4693C34.8726 24.0687 34.4565 22.6628 33.9748 21.8351L35.6537 21.2236C35.6538 21.2246 36.9599 20.7173 33.3222 19.1628ZM16.9765 19.0949L20.2627 18.0785L31.3683 14.644L33.0229 14.1318C32.4942 15.588 32.5164 17.5809 32.6038 18.8617C32.623 19.1515 32.6451 19.4161 32.6665 19.6172L30.8555 20.2949L16.8384 25.5426L16.9765 19.0949ZM2.8603 24.2492L4.51465 24.7613L15.18 28.0608L16.1117 28.348L18.9059 29.2123L19.0437 35.6602L4.63715 30.2661L3.21689 29.7349C3.23777 29.5335 3.25983 29.2692 3.27985 28.9786C3.36681 27.6987 3.3894 25.7054 2.8603 24.2492ZM2.21757 16.0979C2.19755 14.6889 2.36439 13.6699 2.7016 13.152C2.91619 12.8213 3.16945 12.7525 3.34314 12.7525C3.43491 12.7525 3.50098 12.7716 3.50548 12.7716L12.0302 16.9541L16.2833 19.0409L16.1437 25.5338L4.21213 20.4996L3.58248 20.2341C3.55935 20.2243 3.52797 20.2175 3.50377 20.2159C3.45462 20.2106 2.27497 20.0472 2.21757 16.0979ZM15.0539 45.7682L2.493 40.4684C2.46976 40.4583 2.4387 40.4515 2.4145 40.4497C2.36449 40.4447 1.18431 40.2815 1.12724 36.3331C1.10689 34.9224 1.27458 33.9044 1.61115 33.3859C1.82629 33.0552 2.07965 32.9864 2.25302 32.9864C2.345 32.9864 2.41086 33.0049 2.41568 33.0049C2.41568 33.0049 2.41622 33.0049 2.41568 33.0049L15.1926 39.2752L15.0539 45.7682ZM31.5134 39.0952C31.5332 39.3859 31.5553 39.6501 31.5767 39.8515L15.7483 45.7774L15.8866 39.3295L19.2706 38.2825L19.7704 38.4644L21.6435 37.5483L30.2779 34.8781L31.9331 34.3656C31.4038 35.8216 31.4258 37.8153 31.5134 39.0952ZM32.3853 30.3323C32.3565 30.3333 32.3277 30.3391 32.3006 30.352L31.1068 30.855L19.74 35.6516L19.601 29.1588L23.3303 27.3282L32.3604 22.8963C32.3616 22.8955 32.8355 22.7371 33.1833 23.2694C33.5199 23.7873 33.687 24.8063 33.6673 26.2153C33.6084 30.1633 32.4282 30.3273 32.3853 30.3323Z" fill="white"/>
</g>
<defs>
<clipPath id="clip0_299_3781">
<rect width="35.882" height="54" fill="white"/>
</clipPath>
</defs>
</svg>
